# xmcd
#
# Track frame offsets:
# 150
# 23540
# 45537
# 66286
# 97883
# 118623
# 147325
# 171173
# 199697
# 226493
#
# Disc length: 3545 seconds
#
#
# Revision: 0
# Processed by: cddbd v1.5.1PL0 Copyright (c) Steve Scherf et al.
# Submitted via: FreeRIP 2.942 
#
DISCID=800dd70a
DTITLE=Roadhouse - Blues Highway
DYEAR=2002
DGENRE=Blues
TTITLE0=Desert Sky
TTITLE1=Blues Highway
TTITLE2=Ride On The Wind
TTITLE3=Voodoo Queen
TTITLE4=One Last Roll
TTITLE5=Dark Rain
TTITLE6=Serve You Right to Suffer
TTITLE7=When Mountains Fall
TTITLE8=Night Train
TTITLE9=Blues Highway
EXTD=
EXTT0=Boner
EXTT1=Radio Mix (Boner)
EXTT2=Boner
EXTT3=Boner
EXTT4=Boner - Campbell
EXTT5=Boner - Shaw
EXTT6=J. L. Hooker
EXTT7=Boner
EXTT8=Boner - Fothergill
EXTT9=Boner
PLAYORDER=
